<?xml version="1.0" encoding="utf-8"?>
<!-- Generator: Adobe Illustrator 21.0.2, SVG Export Plug-In . SVG Version: 6.00 Build 0)  -->
<svg version="1.1" id="Layer_1" xmlns="http://www.w3.org/2000/svg" xmlns:xlink="http://www.w3.org/1999/xlink" x="0px" y="0px"
	 viewBox="0 0 32.6 32.6" style="enable-background:new 0 0 32.6 32.6;" xml:space="preserve">
<style type="text/css">
	.st0{fill:none;stroke:#000000;stroke-width:0.866;stroke-linecap:round;stroke-linejoin:round;stroke-miterlimit:10;}
</style>
<title>Artboard 8</title>
<g>
	<path id="XMLID_3173_" class="st0" d="M19.9,16.3h9.8c0.5,0,0.9-0.4,0.9-0.9v-10c0-0.5-0.4-0.9-0.9-0.9H16.2
		c-0.5,0-0.9,0.4-0.9,0.9v14.4L19.9,16.3z"/>
	<line id="XMLID_3172_" class="st0" x1="18.6" y1="8.4" x2="27.3" y2="8.4"/>
	<line id="XMLID_3171_" class="st0" x1="18.6" y1="12.4" x2="27.3" y2="12.4"/>
	<line id="XMLID_3170_" class="st0" x1="2.6" y1="25.1" x2="20.8" y2="25.1"/>
	<circle id="XMLID_3169_" cx="11.7" cy="28.7" r="1"/>
	<path id="XMLID_3168_" class="st0" d="M20.8,16.4v14.2c0,0.9-0.8,1.7-1.7,1.7H4.2c-0.9,0-1.7-0.8-1.7-1.7V2.3
		c0-0.9,0.8-1.7,1.7-1.7h14.9c0.9,0,1.7,0.8,1.7,1.7v2.2"/>
</g>
</svg>
